HIERARCHY
ROOT hip
{
  OFFSET -180.713 84.0612 18.0351
  CHANNELS 6 Xposition Yposition Zposition Zrotation Xrotation Yrotation
  JOINT abdomen
  {
    OFFSET 0 20.6881 -0.73152
    CHANNELS 3 Zrotation Xrotation Yrotation
    JOINT chest
    {
      OFFSET 0 11.7043 -0.48768
      CHANNELS 3 Zrotation Xrotation Yrotation
      JOINT neck
      {
        OFFSET 0 22.1894 -2.19456
        CHANNELS 3 Zrotation Xrotation Yrotation
        JOINT head
        {
          OFFSET -0.24384 7.07133 1.2192
          CHANNELS 3 Zrotation Xrotation Yrotation
          JOINT leftEye
          {
            OFFSET 4.14528 8.04674 8.04672
            CHANNELS 3 Zrotation Xrotation Yrotation
            End Site
            {
              OFFSET 1 0 0
            }
          }
          JOINT rightEye
          {
            OFFSET -3.6576 8.04674 8.04672
            CHANNELS 3 Zrotation Xrotation Yrotation
            End Site
            {
              OFFSET 1 0 0
            }
          }
        }
      }
      JOINT rCollar
      {
        OFFSET -2.68224 19.2634 -4.8768
        CHANNELS 3 Zrotation Xrotation Yrotation
        JOINT rShldr
        {
          OFFSET -8.77824 -1.95073 1.46304
          CHANNELS 3 Zrotation Xrotation Yrotation
          JOINT rForeArm
          {
            OFFSET -28.1742 -1.7115 0.48768
            CHANNELS 3 Zrotation Xrotation Yrotation
            JOINT rHand
            {
              OFFSET -22.5879 0.773209 7.07136
              CHANNELS 3 Zrotation Xrotation Yrotation
              JOINT rThumb1
              {
                OFFSET -1.2192 -0.487915 3.41376
                CHANNELS 3 Zrotation Xrotation Yrotation
                JOINT rThumb2
                {
                  OFFSET -3.37035 -0.52449 3.41376
                  CHANNELS 3 Zrotation Xrotation Yrotation
                  End Site
                  {
                    OFFSET -1.78271 -1.18214 1.43049
                  }
                }
              }
              JOINT rIndex1
              {
                OFFSET -7.75947 0.938293 5.60832
                CHANNELS 3 Zrotation Xrotation Yrotation
                JOINT rIndex2
                {
                  OFFSET -2.54057 -0.884171 1.56538
                  CHANNELS 3 Zrotation Xrotation Yrotation
                  End Site
                  {
                    OFFSET -1.62519 -0.234802 1.16502
                  }
                }
              }
              JOINT rMid1
              {
                OFFSET -8.24714 1.18213 3.41376
                CHANNELS 3 Zrotation Xrotation Yrotation
                JOINT rMid2
                {
                  OFFSET -3.10165 -0.590103 1.0647
                  CHANNELS 3 Zrotation Xrotation Yrotation
                  End Site
                  {
                    OFFSET -2.48547 -0.328903 0.83742
                  }
                }
              }
              JOINT rRing1
              {
                OFFSET -8.82822 0.546677 1.51678
                CHANNELS 3 Zrotation Xrotation Yrotation
                JOINT rRing2
                {
                  OFFSET -2.60934 -0.819778 -0.0198488
                  CHANNELS 3 Zrotation Xrotation Yrotation
                  End Site
                  {
                    OFFSET -2.33842 -0.294052 0.168128
                  }
                }
              }
              JOINT rPinky1
              {
                OFFSET -8.27202 -0.0477905 -0.4584
                CHANNELS 3 Zrotation Xrotation Yrotation
                JOINT rPinky2
                {
                  OFFSET -1.82734 -0.647385 -0.700984
                  CHANNELS 3 Zrotation Xrotation Yrotation
                  End Site
                  {
                    OFFSET -1.69225 -0.51767 -0.607171
                  }
                }
              }
            }
          }
        }
      }
      JOINT lCollar
      {
        OFFSET 2.68224 19.2634 -4.8768
        CHANNELS 3 Zrotation Xrotation Yrotation
        JOINT lShldr
        {
          OFFSET 8.77824 -1.95073 1.46304
          CHANNELS 3 Zrotation Xrotation Yrotation
          JOINT lForeArm
          {
            OFFSET 28.1742 -1.7115 0.48768
            CHANNELS 3 Zrotation Xrotation Yrotation
            JOINT lHand
            {
              OFFSET 22.5879 0.773209 7.07136
              CHANNELS 3 Zrotation Xrotation Yrotation
              JOINT lThumb1
              {
                OFFSET 1.2192 -0.487915 3.41376
                CHANNELS 3 Zrotation Xrotation Yrotation
                JOINT lThumb2
                {
                  OFFSET 3.37035 -0.52449 3.41376
                  CHANNELS 3 Zrotation Xrotation Yrotation
                  End Site
                  {
                    OFFSET 1.78271 -1.18214 1.43049
                  }
                }
              }
              JOINT lIndex1
              {
                OFFSET 7.75947 0.938293 5.60832
                CHANNELS 3 Zrotation Xrotation Yrotation
                JOINT lIndex2
                {
                  OFFSET 2.54057 -0.884171 1.56538
                  CHANNELS 3 Zrotation Xrotation Yrotation
                  End Site
                  {
                    OFFSET 1.62519 -0.234802 1.16502
                  }
                }
              }
              JOINT lMid1
              {
                OFFSET 8.24714 1.18213 3.41376
                CHANNELS 3 Zrotation Xrotation Yrotation
                JOINT lMid2
                {
                  OFFSET 3.10165 -0.590103 1.0647
                  CHANNELS 3 Zrotation Xrotation Yrotation
                  End Site
                  {
                    OFFSET 2.48547 -0.328903 0.83742
                  }
                }
              }
              JOINT lRing1
              {
                OFFSET 8.82822 0.546677 1.51678
                CHANNELS 3 Zrotation Xrotation Yrotation
                JOINT lRing2
                {
                  OFFSET 2.60934 -0.819778 -0.0198488
                  CHANNELS 3 Zrotation Xrotation Yrotation
                  End Site
                  {
                    OFFSET 2.33842 -0.294052 0.168128
                  }
                }
              }
              JOINT lPinky1
              {
                OFFSET 8.27202 -0.0477905 -0.4584
                CHANNELS 3 Zrotation Xrotation Yrotation
                JOINT lPinky2
                {
                  OFFSET 1.82734 -0.647385 -0.700984
                  CHANNELS 3 Zrotation Xrotation Yrotation
                  End Site
                  {
                    OFFSET 1.69225 -0.51767 -0.607171
                  }
                }
              }
            }
          }
        }
      }
    }
  }
  JOINT rButtock
  {
    OFFSET -8.77824 4.35084 1.2192
    CHANNELS 3 Zrotation Xrotation Yrotation
    JOINT rThigh
    {
      OFFSET 0 -1.70687 -2.19456
      CHANNELS 3 Zrotation Xrotation Yrotation
      JOINT rShin
      {
        OFFSET 0 -36.8199 0.73152
        CHANNELS 3 Zrotation Xrotation Yrotation
        JOINT rFoot
        {
          OFFSET 0.73152 -45.1104 -5.12064
          CHANNELS 3 Zrotation Xrotation Yrotation
          End Site
          {
            OFFSET -1.1221 -3.69964 12.103
          }
        }
      }
    }
  }
  JOINT lButtock
  {
    OFFSET 8.77824 4.35084 1.2192
    CHANNELS 3 Zrotation Xrotation Yrotation
    JOINT lThigh
    {
      OFFSET 0 -1.70687 -2.19456
      CHANNELS 3 Zrotation Xrotation Yrotation
      JOINT lShin
      {
        OFFSET 0 -36.8199 0.73152
        CHANNELS 3 Zrotation Xrotation Yrotation
        JOINT lFoot
        {
          OFFSET -0.73152 -45.1104 -5.12064
          CHANNELS 3 Zrotation Xrotation Yrotation
          End Site
          {
            OFFSET 1.1221 -3.69964 12.103
          }
        }
      }
    }
  }
}
MOTION
Frames:	8
Frame Time:	0.00833333
185.353 84.7658 47.518 0.292817 -0.000579794 -0.00500383 -0.385197 -0.00168813 -0.0109959 -0.106234 -0.00256711 -0.0184049 -2.77686e-015 7.95139e-016 -1.18335e-023 -8.34274e-015 9.54166e-015 -4.19311e-017 -0 0 0 -0 0 0 -1.29346e-015 1.55301e-018 1.49089e-016 -2.7468e-014 -7.45443e-017 5.96354e-016 -4.98602e-013 1.47896e-013 -1.27222e-014 -5.72104e-012 -1.54754e-013 -4.13472e-014 -1.34955e-011 -1.35073e-014 -1.01778e-013 -2.3327e-011 -2.22639e-014 -1.90038e-013 -1.34911e-011 -1.15295e-014 -1.11319e-013 7.73091 5.47488 0.417314 -1.34956e-011 -1.3418e-014 -1.01778e-013 2.90554 0.965183 0.102902 -1.34898e-011 -1.33186e-014 -1.02573e-013 10.2786 0.731801 0.0259123 -1.34989e-011 -1.19271e-014 -9.22361e-014 2.22167 -0.733487 -0.20892 -1.48962e-015 1.94126e-018 -1.49089e-016 -3.02004e-014 -2.85753e-016 -9.93923e-016 -5.01186e-013 -1.52468e-013 3.18055e-015 -5.7173e-012 1.38553e-013 -4.13472e-014 -1.34854e-011 -2.55267e-014 -1.01778e-013 -2.32801e-011 -4.45278e-014 -1.7016e-013 -1.34879e-011 -2.5842e-014 -9.22361e-014 -7.73091 5.47488 -0.417314 -1.34854e-011 -2.51463e-014 -9.85972e-014 -2.90554 0.965183 -0.102902 -1.34913e-011 -2.52457e-014 -1.00187e-013 -10.2786 0.731801 -0.0259123 -1.34806e-011 -2.38542e-014 -1.11319e-013 -2.22167 -0.733487 0.20892 -2.03217e-016 0 -3.88251e-019 0.221665 -2.58356 -0.0280812 -0.00748969 -0.872633 -0.065141 -0.513126 3.45577 0.129349 2.03217e-016 0 3.88251e-019 -0.80776 -4.07085 0.0653908 0.00325565 1.82139 0.024431 0.517696 2.24911 -0.105178 
181.364 82.4909 40.7726 -3.21133 -2.41635 25.3257 -0.720021 0.0353404 -1.01368 0.199134 -0.579999 -0.321378 -3.87465 2.10554 -3.55783 5.91217 -4.76788 -5.72021 -0 0 0 -0 0 0 2.84019e-014 -4.11914e-013 -3.73207e-014 20.6726 11.8725 1.84082 -11.5746 -8.48944 13.2377 0.000326933 0.416925 0.05859 -6.93012e-010 -2.11924e-010 9.77111e-010 -1.19742e-009 -3.66144e-010 1.68901e-009 -6.93011e-010 -2.11921e-010 9.77097e-010 7.73091 5.47488 0.417314 -6.93013e-010 -2.11921e-010 9.77106e-010 2.90554 0.965183 0.102902 -6.93006e-010 -2.11922e-010 9.77107e-010 10.2786 0.731801 0.0259123 -6.93015e-010 -2.11922e-010 9.77118e-010 2.22167 -0.733487 -0.20892 2.82346e-014 -4.11914e-013 -3.76052e-014 -22.5885 9.71985 -1.39205 9.01005 -5.87673 -11.6213 -0.0423075 4.56835 -0.634707 5.30808e-010 3.27584e-010 -4.01147e-010 9.12267e-010 5.66098e-010 -6.99117e-010 5.30806e-010 3.27584e-010 -4.01139e-010 -7.73091 5.47488 -0.417314 5.30807e-010 3.27582e-010 -4.01147e-010 -2.90554 0.965183 -0.102902 5.30802e-010 3.27584e-010 -4.01148e-010 -10.2786 0.731801 -0.0259123 5.30814e-010 3.27586e-010 -4.0116e-010 -2.22167 -0.733487 0.20892 -2.03217e-016 0 -3.88251e-019 -0.513129 -12.4489 -2.42103 -0.0115886 15.7826 0.151965 -0.910704 3.22164 -5.00539 2.03217e-016 0 3.88251e-019 -0.836015 -6.92769 -1.51748 -0.0308545 6.92124 -0.0787581 0.548906 -1.23096 0.676553 
180.645 82.5135 40.8077 -4.9414 -3.42594 52.1889 -1.07217 0.0750072 -2.06057 0.507755 -1.18398 -0.638811 -7.68764 4.31544 -7.33709 11.1264 -9.65633 -11.9024 -0 0 0 -0 0 0 6.20373e-014 -8.7949e-013 -8.01568e-014 41.6262 24.3807 4.07114 -19.4961 -15.8394 28.0436 -0.000278603 0.8708 0.122383 -1.4462e-009 -4.45439e-010 2.05741e-009 -2.49879e-009 -7.69587e-010 3.55638e-009 -1.4462e-009 -4.45434e-010 2.05739e-009 7.73091 5.47488 0.417314 -1.4462e-009 -4.45433e-010 2.0574e-009 2.90554 0.965183 0.102902 -1.44619e-009 -4.45434e-010 2.0574e-009 10.2786 0.731801 0.0259123 -1.4462e-009 -4.45435e-010 2.05741e-009 2.22167 -0.733487 -0.20892 6.18997e-014 -8.7949e-013 -8.0427e-014 -45.9515 19.9334 -2.98207 15.9065 -11.1941 -24.2106 0.0245189 9.41548 -1.322 1.12856e-009 6.88981e-010 -8.41842e-010 1.9397e-009 1.19064e-009 -1.46718e-009 1.12856e-009 6.88981e-010 -8.41836e-010 -7.73091 5.47488 -0.417314 1.12856e-009 6.88977e-010 -8.41845e-010 -2.90554 0.965183 -0.102902 1.12856e-009 6.88981e-010 -8.41846e-010 -10.2786 0.731801 -0.0259123 1.12857e-009 6.88983e-010 -8.41858e-010 -2.22167 -0.733487 0.20892 -2.03217e-016 0 -3.88251e-019 -2.25401 -22.7865 -5.24934 -0.17755 33.4919 0.443852 -1.37145 2.98174 -10.4193 2.03217e-016 0 3.88251e-019 -1.03353 -9.97909 -3.21724 -0.0463831 12.3402 -0.189335 0.684945 -4.89559 1.50896 
179.946 82.5358 40.8207 -5.86918 -1.94522 76.0471 -1.38578 0.109262 -3.01907 0.791545 -1.73466 -0.9277 -10.8406 6.21903 -10.7302 14.8577 -13.7266 -17.6201 -0 0 0 -0 0 0 8.77927e-014 -1.23574e-012 -1.1226e-013 59.292 35.4529 6.63934 -23.4244 -19.9518 42.3298 -0.00157777 1.25077 0.175807 -2.05205e-009 -6.35745e-010 2.93154e-009 -3.54561e-009 -1.09839e-009 5.06741e-009 -2.05205e-009 -6.3574e-010 2.93151e-009 7.73091 5.47488 0.417314 -2.05205e-009 -6.35737e-010 2.93152e-009 2.90554 0.965183 0.102902 -2.05204e-009 -6.35738e-010 2.93153e-009 10.2786 0.731801 0.0259123 -2.05205e-009 -6.35742e-010 2.93154e-009 2.22167 -0.733487 -0.20892 8.76829e-014 -1.23574e-012 -1.12518e-013 -66.1764 29.0855 -4.71141 20.1773 -14.7188 -36.0343 0.184224 13.6982 -1.95366 1.61939e-009 9.82803e-010 -1.20324e-009 2.78336e-009 1.69838e-009 -2.09701e-009 1.61939e-009 9.82802e-010 -1.20323e-009 -7.73091 5.47488 -0.417314 1.61939e-009 9.82797e-010 -1.20324e-009 -2.90554 0.965183 -0.102902 1.61939e-009 9.82803e-010 -1.20324e-009 -10.2786 0.731801 -0.0259123 1.6194e-009 9.82805e-010 -1.20326e-009 -2.22167 -0.733487 0.20892 -2.03217e-016 0 -3.88251e-019 -4.83171 -31.9406 -8.29963 -0.554418 49.09 0.86885 -1.83299 2.69193 -15.2679 2.03217e-016 0 3.88251e-019 -1.37621 -12.6063 -4.76478 -0.0418049 17.1208 -0.29653 0.898249 -8.18505 2.26244 
179.25 82.5658 40.8686 -6.94601 0.408226 92.4942 -1.60582 0.130113 -3.75658 1.02557 -2.15229 -1.1449 -12.903 7.45126 -13.1024 16.9335 -16.3056 -21.7336 -0 0 0 -0 0 0 9.38479e-014 -1.31369e-012 -1.17531e-013 70.7777 43.0872 9.02387 -24.986 -21.0659 52.8997 -0.00256505 1.44599 0.203264 -2.28954e-009 -7.18032e-010 3.29026e-009 -3.95608e-009 -1.24058e-009 5.68756e-009 -2.28954e-009 -7.18027e-010 3.29023e-009 7.73091 5.47488 0.417314 -2.28954e-009 -7.18024e-010 3.29024e-009 2.90554 0.965183 0.102902 -2.28953e-009 -7.18025e-010 3.29024e-009 10.2786 0.731801 0.0259123 -2.28954e-009 -7.18029e-010 3.29026e-009 2.22167 -0.733487 -0.20892 9.37613e-014 -1.31369e-012 -1.1778e-013 -79.6689 35.647 -6.32136 22.4028 -16.3742 -44.8925 0.349333 16.5767 -2.39766 1.84292e-009 1.10769e-009 -1.36639e-009 3.16758e-009 1.91413e-009 -2.38129e-009 1.84292e-009 1.10769e-009 -1.36638e-009 -7.73091 5.47488 -0.417314 1.84292e-009 1.10768e-009 -1.36639e-009 -2.90554 0.965183 -0.102902 1.84291e-009 1.10769e-009 -1.36639e-009 -10.2786 0.731801 -0.0259123 1.84293e-009 1.10769e-009 -1.3664e-009 -2.22167 -0.733487 0.20892 -2.03217e-016 0 -3.88251e-019 -7.39039 -38.3573 -10.9175 -1.0628 59.4128 1.38565 -2.23265 2.32189 -18.7071 2.03217e-016 0 3.88251e-019 -1.72497 -14.2052 -5.85804 -0.0271698 20.3057 -0.384867 1.10272 -10.5427 2.7947 
178.558 82.5949 40.898 -7.56299 1.38187 98.8913 -1.701 0.138643 -4.18658 1.19694 -2.3917 -1.26192 -13.6846 7.80823 -14.007 17.6012 -17.1858 -23.3162 -0 0 0 -0 0 0 6.48647e-014 -9.1266e-013 -7.62215e-014 74.9968 46.0675 10.1324 -25.6024 -21.3693 57.7654 -0.00252959 1.39845 0.196579 -1.87063e-009 -5.99434e-010 2.69787e-009 -3.23238e-009 -1.03575e-009 4.66389e-009 -1.87063e-009 -5.9943e-010 2.69785e-009 7.73091 5.47488 0.417314 -1.87063e-009 -5.99427e-010 2.69785e-009 2.90554 0.965183 0.102902 -1.87062e-009 -5.99429e-010 2.69786e-009 10.2786 0.731801 0.0259123 -1.87063e-009 -5.99432e-010 2.69787e-009 2.22167 -0.733487 -0.20892 6.47985e-014 -9.12661e-013 -7.64642e-014 -84.4051 38.6614 -7.34015 23.3747 -17.1719 -49.2551 0.414814 17.4695 -2.54015 1.5508e-009 8.91484e-010 -1.15491e-009 2.66533e-009 1.54031e-009 -2.01247e-009 1.5508e-009 8.91485e-010 -1.15491e-009 -7.73091 5.47488 -0.417314 1.5508e-009 8.9148e-010 -1.15492e-009 -2.90554 0.965183 -0.102902 1.55079e-009 8.91486e-010 -1.15492e-009 -10.2786 0.731801 -0.0259123 1.55081e-009 8.91488e-010 -1.15493e-009 -2.22167 -0.733487 0.20892 -2.03217e-016 0 -3.88251e-019 -8.66577 -41.1536 -12.1063 -1.29432 62.417 1.62967 -2.53251 1.81143 -20.194 2.03217e-016 0 3.88251e-019 -1.92766 -14.376 -6.27168 -0.01843 21.2559 -0.440643 1.20343 -11.603 3.00036 
177.873 82.6266 40.9216 -7.48529 1.03096 98.1578 -1.70703 0.138096 -4.39685 1.32495 -2.50347 -1.30728 -13.6031 7.5578 -13.8544 17.4655 -16.9641 -23.019 -0 0 0 -0 0 0 1.12092e-014 -1.73752e-013 -2.0686e-015 74.4946 45.776 9.94172 -25.8719 -22.128 58.6786 -0.00185061 1.17676 0.165404 -9.89561e-010 -3.39709e-010 1.43705e-009 -1.71015e-009 -5.87133e-010 2.48495e-009 -9.89559e-010 -3.39709e-010 1.43703e-009 7.73091 5.47488 0.417314 -9.89562e-010 -3.39708e-010 1.43704e-009 2.90554 0.965183 0.102902 -9.89553e-010 -3.39709e-010 1.43704e-009 10.2786 0.731801 0.0259123 -9.89565e-010 -3.3971e-010 1.43704e-009 2.22167 -0.733487 -0.20892 1.1161e-014 -1.73754e-013 -2.30776e-015 -83.1194 39.1636 -7.76662 23.7705 -17.9362 -50.384 0.386643 16.9463 -2.45847 8.97098e-010 4.36632e-010 -6.80473e-010 1.54146e-009 7.53966e-010 -1.18522e-009 8.97101e-010 4.36635e-010 -6.80472e-010 -7.73091 5.47488 -0.417314 8.97099e-010 4.36632e-010 -6.80473e-010 -2.90554 0.965183 -0.102902 8.97092e-010 4.36635e-010 -6.80475e-010 -10.2786 0.731801 -0.0259123 8.97105e-010 4.36638e-010 -6.80483e-010 -2.22167 -0.733487 0.20892 -2.03217e-016 0 -3.88251e-019 -8.62485 -41.4272 -11.9678 -1.13087 60.1928 1.49298 -2.7407 1.2013 -20.2878 2.03217e-016 0 3.88251e-019 -1.99553 -13.5323 -6.19151 -0.0198295 20.6101 -0.470546 1.20716 -11.7379 2.96633 
177.195 82.637 40.9396 -7.17109 0.414413 94.5301 -1.66967 0.123761 -4.51622 1.4334 -2.55149 -1.3233 -13.1696 7.06428 -13.2829 16.999 -16.3029 -21.9783 -0 0 0 -0 0 0 -4.03821e-014 5.5734e-013 7.07953e-014 72.1093 44.15 9.2474 -26.0645 -23.2506 58.0159 -0.00103634 0.859966 0.120868 -1.48761e-010 -1.02989e-010 2.76106e-010 -2.57719e-010 -1.78237e-010 4.7844e-010 -1.48754e-010 -1.02991e-010 2.76092e-010 7.73091 5.47488 0.417314 -1.4876e-010 -1.02992e-010 2.76102e-010 2.90554 0.965183 0.102902 -1.48752e-010 -1.02992e-010 2.76098e-010 10.2786 0.731801 0.0259123 -1.48765e-010 -1.02992e-010 2.76096e-010 2.22167 -0.733487 -0.20892 -4.04188e-014 5.57337e-013 7.0555e-014 -79.4504 38.6236 -7.9456 23.9946 -18.8111 -50.1877 0.32723 15.8957 -2.29503 3.25031e-010 5.36284e-011 -2.56168e-010 5.58165e-010 9.18783e-011 -4.45501e-010 3.25035e-010 5.36332e-011 -2.56167e-010 -7.73091 5.47488 -0.417314 3.25033e-010 5.36334e-011 -2.56164e-010 -2.90554 0.965183 -0.102902 3.25025e-010 5.36336e-011 -2.56167e-010 -10.2786 0.731801 -0.0259123 3.25036e-010 5.36363e-011 -2.56172e-010 -2.22167 -0.733487 0.20892 -2.03217e-016 0 -3.88251e-019 -8.0134 -40.6523 -11.2519 -0.859708 55.7763 1.24974 -2.86493 0.614491 -19.7971 2.03217e-016 0 3.88251e-019 -2.0094 -12.2973 -5.91732 -0.0262453 19.3272 -0.487484 1.16976 -11.4988 2.83212 
